<?xml version="1.0" encoding="UTF-8" standalone="no"?><svg xmlns="http://www.w3.org/2000/svg" xmlns:xlink="http://www.w3.org/1999/xlink" contentScriptType="application/ecmascript" contentStyleType="text/css" height="806px" preserveAspectRatio="none" style="width:1465px;height:806px;" version="1.1" viewBox="0 0 1465 806" width="1465px" zoomAndPan="magnify"><defs><filter height="300%" id="f488uazvsluqg" width="300%" x="-1" y="-1"><feGaussianBlur result="blurOut" stdDeviation="2.0"/><feColorMatrix in="blurOut" result="blurOut2" type="matrix" values="0 0 0 0 0 0 0 0 0 0 0 0 0 0 0 0 0 0 .4 0"/><feOffset dx="4.0" dy="4.0" in="blurOut2" result="blurOut3"/><feBlend in="SourceGraphic" in2="blurOut3" mode="normal"/></filter></defs><g><rect fill="#B8E8FE" height="781.7656" style="stroke: #B8E8FE; stroke-width: 1.0;" width="554" x="10" y="12.7451"/><text fill="#000000" font-family="sans-serif" font-size="18" lengthAdjust="spacingAndGlyphs" textLength="97" x="238.5" y="29.4531">Admin-App</text><line style="stroke: #000000; stroke-width: 2.0;" x1="10" x2="10" y1="12.7451" y2="794.5107"/><path d="M20,353.5732 L20,484.6357 A0,0 0 0 0 20,484.6357 L195,484.6357 A0,0 0 0 0 195,484.6357 L195,423.1045 L215,419.1045 L195,415.1045 L195,363.5732 L185,353.5732 L20,353.5732 A0,0 0 0 0 20,353.5732 " fill="#FBFB77" filter="url(#f488uazvsluqg)" style="stroke: #A80036; stroke-width: 1.0;"/><path d="M185,353.5732 L185,363.5732 L195,363.5732 L185,353.5732 " fill="#FBFB77" style="stroke: #A80036; stroke-width: 1.0;"/><text fill="#000000" font-family="sans-serif" font-size="13" lengthAdjust="spacingAndGlyphs" textLength="154" x="26" y="370.6401">Wurde das Panel bereits</text><text fill="#000000" font-family="sans-serif" font-size="13" lengthAdjust="spacingAndGlyphs" textLength="122" x="26" y="385.7729">initialisiert, so kann</text><text fill="#000000" font-family="sans-serif" font-size="13" lengthAdjust="spacingAndGlyphs" textLength="134" x="26" y="400.9058">der Beitritt zum Büro</text><text fill="#000000" font-family="sans-serif" font-size="13" lengthAdjust="spacingAndGlyphs" textLength="125" x="26" y="416.0386">nur über ein bereits</text><text fill="#000000" font-family="sans-serif" font-size="13" lengthAdjust="spacingAndGlyphs" textLength="142" x="26" y="431.1714">beigetretenes Mitglied</text><text fill="#000000" font-family="sans-serif" font-size="13" lengthAdjust="spacingAndGlyphs" textLength="106" x="26" y="446.3042">erfolgen, dessen</text><text fill="#000000" font-family="sans-serif" font-size="13" lengthAdjust="spacingAndGlyphs" textLength="129" x="26" y="461.437">AdminApp auch den</text><text fill="#000000" font-family="sans-serif" font-size="13" lengthAdjust="spacingAndGlyphs" textLength="148" x="26" y="476.5698">QRCode anzeigen kann</text><rect fill="#FFFFFF" filter="url(#f488uazvsluqg)" height="33.9688" rx="12.5" ry="12.5" style="stroke: #A80036; stroke-width: 1.5;" width="278" x="215" y="402.1201"/><text fill="#000000" font-family="sans-serif" font-size="12" lengthAdjust="spacingAndGlyphs" textLength="258" x="225" y="423.2588">Scannen des Panel QRCode durch Nutzer</text><rect fill="#FFFFFF" filter="url(#f488uazvsluqg)" height="33.9688" rx="12.5" ry="12.5" style="stroke: #A80036; stroke-width: 1.5;" width="234" x="237" y="519.6357"/><text fill="#000000" font-family="sans-serif" font-size="12" lengthAdjust="spacingAndGlyphs" textLength="214" x="247" y="540.7744">Angabe des Namens durch Nutzer</text><rect fill="#FFFFFF" filter="url(#f488uazvsluqg)" height="47.9375" rx="12.5" ry="12.5" style="stroke: #A80036; stroke-width: 1.5;" width="313" x="197.5" y="588.6045"/><text fill="#000000" font-family="sans-serif" font-size="12" lengthAdjust="spacingAndGlyphs" textLength="293" x="207.5" y="609.7432">Beitritt zum Büro mittels gescanntem Join Code</text><text fill="#000000" font-family="sans-serif" font-size="12" lengthAdjust="spacingAndGlyphs" textLength="228" x="207.5" y="623.7119">und Büro durch Anfrage beim Server</text><rect fill="#FFFFFF" filter="url(#f488uazvsluqg)" height="33.9688" rx="12.5" ry="12.5" style="stroke: #A80036; stroke-width: 1.5;" width="402" x="153" y="671.542"/><text fill="#000000" font-family="sans-serif" font-size="12" lengthAdjust="spacingAndGlyphs" textLength="382" x="163" y="692.6807">Anzeige des Hauptbildschirms, sobald Beitritt abgeschlossen</text><text fill="#000000" font-family="sans-serif" font-size="18" lengthAdjust="spacingAndGlyphs" textLength="196" x="609.5" y="29.4531">Geteilte Initialisierung</text><line style="stroke: #000000; stroke-width: 2.0;" x1="564" x2="564" y1="12.7451" y2="794.5107"/><ellipse cx="708" cy="43.6982" fill="#000000" filter="url(#f488uazvsluqg)" rx="10" ry="10" style="stroke: none; stroke-width: 1.0;"/><rect fill="#FEFECE" filter="url(#f488uazvsluqg)" height="33.9688" rx="12.5" ry="12.5" style="stroke: #A80036; stroke-width: 1.5;" width="228" x="594" y="88.6982"/><text fill="#000000" font-family="sans-serif" font-size="12" lengthAdjust="spacingAndGlyphs" textLength="208" x="604" y="109.8369">Generierung zufälligen Passworts</text><rect fill="#FEFECE" filter="url(#f488uazvsluqg)" height="33.9688" rx="12.5" ry="12.5" style="stroke: #A80036; stroke-width: 1.5;" width="255" x="580.5" y="157.667"/><text fill="#000000" font-family="sans-serif" font-size="12" lengthAdjust="spacingAndGlyphs" textLength="235" x="590.5" y="178.8057">Registrierung des Geräts beim Server</text><rect fill="#FEFECE" filter="url(#f488uazvsluqg)" height="47.9375" rx="12.5" ry="12.5" style="stroke: #A80036; stroke-width: 1.5;" width="268" x="574" y="226.6357"/><text fill="#000000" font-family="sans-serif" font-size="12" lengthAdjust="spacingAndGlyphs" textLength="248" x="584" y="247.7744">Abholen eines Authentifizierungstokens</text><text fill="#000000" font-family="sans-serif" font-size="12" lengthAdjust="spacingAndGlyphs" textLength="189" x="584" y="261.7432">mittels Passwort und GeräteId</text><polygon fill="#FEFECE" filter="url(#f488uazvsluqg)" points="682.5,309.5732,733.5,309.5732,745.5,321.5732,733.5,333.5732,682.5,333.5732,670.5,321.5732,682.5,309.5732" style="stroke: #A80036; stroke-width: 1.5;"/><text fill="#000000" font-family="sans-serif" font-size="11" lengthAdjust="spacingAndGlyphs" textLength="51" x="682.5" y="325.3813">App Typ?</text><text fill="#000000" font-family="sans-serif" font-size="11" lengthAdjust="spacingAndGlyphs" textLength="60" x="610.5" y="318.979">Admin-App</text><text fill="#000000" font-family="sans-serif" font-size="11" lengthAdjust="spacingAndGlyphs" textLength="56" x="745.5" y="318.979">Panel-App</text><polygon fill="#FEFECE" filter="url(#f488uazvsluqg)" points="708,715.5107,720,727.5107,708,739.5107,696,727.5107,708,715.5107" style="stroke: #A80036; stroke-width: 1.5;"/><ellipse cx="708" cy="784.5107" fill="none" filter="url(#f488uazvsluqg)" rx="10" ry="10" style="stroke: #000000; stroke-width: 1.0;"/><ellipse cx="708.5" cy="785.0107" fill="#000000" filter="url(#f488uazvsluqg)" rx="6" ry="6" style="stroke: none; stroke-width: 1.0;"/><rect fill="#E4F1D5" height="781.7656" style="stroke: #E4F1D5; stroke-width: 1.0;" width="602.5" x="851" y="12.7451"/><text fill="#000000" font-family="sans-serif" font-size="18" lengthAdjust="spacingAndGlyphs" textLength="89" x="1107.75" y="29.4531">Panel-App</text><line style="stroke: #000000; stroke-width: 2.0;" x1="851" x2="851" y1="12.7451" y2="794.5107"/><path d="M1242.5,353.5732 L1242.5,420.1045 L1222.5,424.1045 L1242.5,428.1045 L1242.5,494.6357 A0,0 0 0 0 1242.5,494.6357 L1443.5,494.6357 A0,0 0 0 0 1443.5,494.6357 L1443.5,363.5732 L1433.5,353.5732 L1242.5,353.5732 A0,0 0 0 0 1242.5,353.5732 " fill="#FBFB77" filter="url(#f488uazvsluqg)" style="stroke: #A80036; stroke-width: 1.0;"/><path d="M1433.5,353.5732 L1433.5,363.5732 L1443.5,363.5732 L1433.5,353.5732 " fill="#FBFB77" style="stroke: #A80036; stroke-width: 1.0;"/><text fill="#000000" font-family="sans-serif" font-size="13" lengthAdjust="spacingAndGlyphs" textLength="149" x="1248.5" y="370.6401">Das Panel erhält neben</text><text fill="#000000" font-family="sans-serif" font-size="13" lengthAdjust="spacingAndGlyphs" textLength="129" x="1248.5" y="385.7729">einer Id für das Büro</text><text fill="#000000" font-family="sans-serif" font-size="13" lengthAdjust="spacingAndGlyphs" textLength="157" x="1248.5" y="400.9058">auch den sog. Join Code,</text><text fill="#000000" font-family="sans-serif" font-size="13" lengthAdjust="spacingAndGlyphs" textLength="113" x="1248.5" y="416.0386">der notwendig ist,</text><text fill="#000000" font-family="sans-serif" font-size="13" lengthAdjust="spacingAndGlyphs" textLength="180" x="1248.5" y="431.1714">um einem Büro beizutreten.</text><line style="stroke: #A80036; stroke-width: 1.0;" x1="1242.5" x2="1443.5" y1="439.2373" y2="439.2373"/><line style="stroke: #A80036; stroke-width: 1.0;" x1="1242.5" x2="1443.5" y1="441.2373" y2="441.2373"/><text fill="#000000" font-family="sans-serif" font-size="13" lengthAdjust="spacingAndGlyphs" textLength="149" x="1248.5" y="456.3042">Durch die Registrierung</text><text fill="#000000" font-family="sans-serif" font-size="13" lengthAdjust="spacingAndGlyphs" textLength="165" x="1248.5" y="471.437">ist das Panel automatisch</text><text fill="#000000" font-family="sans-serif" font-size="13" lengthAdjust="spacingAndGlyphs" textLength="121" x="1248.5" y="486.5698">Mitglied des Büros.</text><rect fill="#FFFFFF" filter="url(#f488uazvsluqg)" height="33.9688" rx="12.5" ry="12.5" style="stroke: #A80036; stroke-width: 1.5;" width="304" x="918.5" y="407.1201"/><text fill="#000000" font-family="sans-serif" font-size="12" lengthAdjust="spacingAndGlyphs" textLength="284" x="928.5" y="428.2588">Registrierung eines neuen Büros beim Server</text><rect fill="#FFFFFF" filter="url(#f488uazvsluqg)" height="33.9688" rx="12.5" ry="12.5" style="stroke: #A80036; stroke-width: 1.5;" width="260" x="940.5" y="529.6357"/><text fill="#000000" font-family="sans-serif" font-size="12" lengthAdjust="spacingAndGlyphs" textLength="240" x="950.5" y="550.7744">Anzeige von Join Code + Id als QRCode</text><rect fill="#FFFFFF" filter="url(#f488uazvsluqg)" height="33.9688" rx="12.5" ry="12.5" style="stroke: #A80036; stroke-width: 1.5;" width="419" x="861" y="598.6045"/><text fill="#000000" font-family="sans-serif" font-size="12" lengthAdjust="spacingAndGlyphs" textLength="399" x="871" y="619.7432">Anzeige des Hauptbildschirms, sobald ein Admin beigetreten ist</text><line style="stroke: #000000; stroke-width: 2.0;" x1="1453.5" x2="1453.5" y1="12.7451" y2="794.5107"/><line style="stroke: #A80036; stroke-width: 1.5;" x1="354" x2="354" y1="436.0889" y2="519.6357"/><polygon fill="#A80036" points="350,509.6357,354,519.6357,358,509.6357,354,513.6357" style="stroke: #A80036; stroke-width: 1.0;"/><line style="stroke: #A80036; stroke-width: 1.5;" x1="354" x2="354" y1="553.6045" y2="588.6045"/><polygon fill="#A80036" points="350,578.6045,354,588.6045,358,578.6045,354,582.6045" style="stroke: #A80036; stroke-width: 1.0;"/><line style="stroke: #A80036; stroke-width: 1.5;" x1="354" x2="354" y1="636.542" y2="671.542"/><polygon fill="#A80036" points="350,661.542,354,671.542,358,661.542,354,665.542" style="stroke: #A80036; stroke-width: 1.0;"/><line style="stroke: #A80036; stroke-width: 1.5;" x1="708" x2="708" y1="53.6982" y2="88.6982"/><polygon fill="#A80036" points="704,78.6982,708,88.6982,712,78.6982,708,82.6982" style="stroke: #A80036; stroke-width: 1.0;"/><line style="stroke: #A80036; stroke-width: 1.5;" x1="708" x2="708" y1="122.667" y2="157.667"/><polygon fill="#A80036" points="704,147.667,708,157.667,712,147.667,708,151.667" style="stroke: #A80036; stroke-width: 1.0;"/><line style="stroke: #A80036; stroke-width: 1.5;" x1="708" x2="708" y1="191.6357" y2="226.6357"/><polygon fill="#A80036" points="704,216.6357,708,226.6357,712,216.6357,708,220.6357" style="stroke: #A80036; stroke-width: 1.0;"/><line style="stroke: #A80036; stroke-width: 1.5;" x1="708" x2="708" y1="274.5732" y2="309.5732"/><polygon fill="#A80036" points="704,299.5732,708,309.5732,712,299.5732,708,303.5732" style="stroke: #A80036; stroke-width: 1.0;"/><line style="stroke: #A80036; stroke-width: 1.5;" x1="708" x2="708" y1="739.5107" y2="774.5107"/><polygon fill="#A80036" points="704,764.5107,708,774.5107,712,764.5107,708,768.5107" style="stroke: #A80036; stroke-width: 1.0;"/><line style="stroke: #A80036; stroke-width: 1.5;" x1="1070.5" x2="1070.5" y1="441.0889" y2="529.6357"/><polygon fill="#A80036" points="1066.5,519.6357,1070.5,529.6357,1074.5,519.6357,1070.5,523.6357" style="stroke: #A80036; stroke-width: 1.0;"/><line style="stroke: #A80036; stroke-width: 1.5;" x1="1070.5" x2="1070.5" y1="563.6045" y2="598.6045"/><polygon fill="#A80036" points="1066.5,588.6045,1070.5,598.6045,1074.5,588.6045,1070.5,592.6045" style="stroke: #A80036; stroke-width: 1.0;"/><line style="stroke: #A80036; stroke-width: 1.5;" x1="670.5" x2="354" y1="321.5732" y2="321.5732"/><line style="stroke: #A80036; stroke-width: 1.5;" x1="354" x2="354" y1="321.5732" y2="402.1201"/><polygon fill="#A80036" points="350,392.1201,354,402.1201,358,392.1201,354,396.1201" style="stroke: #A80036; stroke-width: 1.0;"/><line style="stroke: #A80036; stroke-width: 1.5;" x1="745.5" x2="1070.5" y1="321.5732" y2="321.5732"/><line style="stroke: #A80036; stroke-width: 1.5;" x1="1070.5" x2="1070.5" y1="321.5732" y2="407.1201"/><polygon fill="#A80036" points="1066.5,397.1201,1070.5,407.1201,1074.5,397.1201,1070.5,401.1201" style="stroke: #A80036; stroke-width: 1.0;"/><line style="stroke: #A80036; stroke-width: 1.5;" x1="354" x2="354" y1="705.5107" y2="727.5107"/><line style="stroke: #A80036; stroke-width: 1.5;" x1="354" x2="696" y1="727.5107" y2="727.5107"/><polygon fill="#A80036" points="686,723.5107,696,727.5107,686,731.5107,690,727.5107" style="stroke: #A80036; stroke-width: 1.0;"/><line style="stroke: #A80036; stroke-width: 1.5;" x1="1070.5" x2="1070.5" y1="632.5732" y2="727.5107"/><line style="stroke: #A80036; stroke-width: 1.5;" x1="1070.5" x2="720" y1="727.5107" y2="727.5107"/><polygon fill="#A80036" points="730,723.5107,720,727.5107,730,731.5107,726,727.5107" style="stroke: #A80036; stroke-width: 1.0;"/><!--
@startuml

|#b8e8fe|Admin-App|
|Geteilte Initialisierung|
|#e4f1d5|Panel-App|

|Geteilte Initialisierung|

start
:Generierung zufälligen Passworts;
:Registrierung des Geräts beim Server;
:Abholen eines Authentifizierungstokens
mittels Passwort und GeräteId;

if (App Typ?) then (Admin-App)
  |Admin-App|

  #White:Scannen des Panel QRCode durch Nutzer;
  note left
    Wurde das Panel bereits
    initialisiert, so kann
    der Beitritt zum Büro
    nur über ein bereits
    beigetretenes Mitglied
    erfolgen, dessen
    AdminApp auch den
    QRCode anzeigen kann
  end note
  #White:Angabe des Namens durch Nutzer;
  #White:Beitritt zum Büro mittels gescanntem Join Code
  und Büro durch Anfrage beim Server;
  #White:Anzeige des Hauptbildschirms, sobald Beitritt abgeschlossen;
else (Panel-App)
  |Panel-App|

  #White:Registrierung eines neuen Büros beim Server;
  note right
    Das Panel erhält neben
    einer Id für das Büro
    auch den sog. Join Code,
    der notwendig ist,
    um einem Büro beizutreten.
    ====
    Durch die Registrierung
    ist das Panel automatisch
    Mitglied des Büros.
  end note
  #White:Anzeige von Join Code + Id als QRCode;
  #White:Anzeige des Hauptbildschirms, sobald ein Admin beigetreten ist;
endif

|Geteilte Initialisierung|

stop

@enduml

PlantUML version 1.2018.01(Sun Jan 28 19:08:22 CET 2018)
(GPL source distribution)
Java Runtime: OpenJDK Runtime Environment
JVM: OpenJDK 64-Bit Server VM
Java Version: 1.8.0_202-b26
Operating System: Linux
OS Version: 4.20.13-arch1-1-ARCH
Default Encoding: UTF-8
Language: en
Country: US
--></g></svg>